ply
format ascii 1.0
element vertex 40
property float x
property float y
property float z
element face 20
property list uchar uint vertex_indices
end_header
-2 0 0
2 0 0
2 4 0
-2 4 0
-2 0 3
-2 4 3
2 4 3
2 0 3
-2 0 0
-2 0 3
-2 4 3
-2 4 0
2 0 0
2 4 0
2 4 3
2 0 3
-2 4 0
2 4 0
2 4 3
-2 4 3
-2 0 2.8
-2 0 3
2 0 3
2 0 2.8
-2 2 0
2 2 0
2 2 1.4
-2 2 1.4
-2 2 2.6
2 2 2.6
2 2 3
-2 2 3
-2 2 1.4
-0.5 2 1.4
-0.5 2 2.6
-2 2 2.6
0.5 2 1.4
2 2 1.4
2 2 2.6
0.5 2 2.6
3 0 1 2
3 0 2 3
3 4 5 6
3 4 6 7
3 8 9 10
3 8 10 11
3 12 13 14
3 12 14 15
3 16 17 18
3 16 18 19
3 20 21 22
3 20 22 23
3 24 25 26
3 24 26 27
3 28 29 30
3 28 30 31
3 32 33 34
3 32 34 35
3 36 37 38
3 36 38 39
