ply
format ascii 1.0
element vertex 6
property float x
property float y
property float z
property float nx
property float ny
property float nz
element face 2
property list uchar uint vertex_indices
end_header
-25.000000 -25.000000 0.000000 0.000000 0.000000 1.000000
25.000000 -25.000000 0.000000 0.000000 0.000000 1.000000
25.000000 25.000000 0.000000 0.000000 0.000000 1.000000
-25.000000 -25.000000 0.000000 0.000000 0.000000 1.000000
25.000000 25.000000 0.000000 0.000000 0.000000 1.000000
-25.000000 25.000000 0.000000 0.000000 0.000000 1.000000
3 0 1 2
3 3 4 5
