ply
format ascii 1.0
element vertex 24
property float x
property float y
property float z
property float nx
property float ny
property float nz
element face 8
property list uchar uint vertex_indices
end_header
0.425000 -0.736122 0.000000 0.000000 0.000000 -1.000000
-0.850000 0.000000 0.000000 0.000000 0.000000 -1.000000
0.425000 0.736122 0.000000 0.000000 0.000000 -1.000000
0.425000 0.736122 2.600000 0.000000 0.000000 1.000000
-0.850000 0.000000 2.600000 0.000000 0.000000 1.000000
0.425000 -0.736122 2.600000 0.000000 0.000000 1.000000
0.425000 0.736122 0.000000 -0.500000 0.866025 0.000000
-0.850000 0.000000 0.000000 -0.500000 0.866025 0.000000
-0.850000 0.000000 2.600000 -0.500000 0.866025 0.000000
0.425000 0.736122 0.000000 -0.500000 0.866025 0.000000
-0.850000 0.000000 2.600000 -0.500000 0.866025 0.000000
0.425000 0.736122 2.600000 -0.500000 0.866025 0.000000
-0.850000 0.000000 0.000000 -0.500000 -0.866025 0.000000
0.425000 -0.736122 0.000000 -0.500000 -0.866025 0.000000
0.425000 -0.736122 2.600000 -0.500000 -0.866025 0.000000
-0.850000 0.000000 0.000000 -0.500000 -0.866025 0.000000
0.425000 -0.736122 2.600000 -0.500000 -0.866025 0.000000
-0.850000 0.000000 2.600000 -0.500000 -0.866025 0.000000
0.425000 -0.736122 0.000000 1.000000 -0.000000 0.000000
0.425000 0.736122 0.000000 1.000000 -0.000000 0.000000
0.425000 0.736122 2.600000 1.000000 -0.000000 0.000000
0.425000 -0.736122 0.000000 1.000000 -0.000000 0.000000
0.425000 0.736122 2.600000 1.000000 -0.000000 0.000000
0.425000 -0.736122 2.600000 1.000000 -0.000000 0.000000
3 0 1 2
3 3 4 5
3 6 7 8
3 9 10 11
3 12 13 14
3 15 16 17
3 18 19 20
3 21 22 23
