ply
format ascii 1.0
element vertex 48
property float x
property float y
property float z
property float nx
property float ny
property float nz
element face 16
property list uchar uint vertex_indices
end_header
-7.000000 -1.000000 7.000000 0.000000 0.000000 -1.000000
-7.000000 15.000000 7.000000 0.000000 0.000000 -1.000000
7.000000 15.000000 7.000000 0.000000 0.000000 -1.000000
-7.000000 -1.000000 7.000000 0.000000 0.000000 -1.000000
7.000000 15.000000 7.000000 0.000000 0.000000 -1.000000
7.000000 -1.000000 7.000000 0.000000 0.000000 -1.000000
7.000000 -1.000000 0.000000 -1.000000 0.000000 0.000000
7.000000 -1.000000 7.000000 -1.000000 0.000000 0.000000
7.000000 15.000000 7.000000 -1.000000 0.000000 0.000000
7.000000 -1.000000 0.000000 -1.000000 0.000000 0.000000
7.000000 15.000000 7.000000 -1.000000 0.000000 0.000000
7.000000 15.000000 0.000000 -1.000000 0.000000 0.000000
-7.000000 -1.000000 0.000000 0.000000 1.000000 0.000000
-7.000000 -1.000000 7.000000 0.000000 1.000000 0.000000
7.000000 -1.000000 7.000000 0.000000 1.000000 0.000000
-7.000000 -1.000000 0.000000 0.000000 1.000000 0.000000
7.000000 -1.000000 7.000000 0.000000 1.000000 0.000000
7.000000 -1.000000 0.000000 0.000000 1.000000 0.000000
-7.000000 15.000000 0.000000 0.000000 -1.000000 0.000000
7.000000 15.000000 0.000000 0.000000 -1.000000 0.000000
7.000000 15.000000 7.000000 0.000000 -1.000000 0.000000
-7.000000 15.000000 0.000000 0.000000 -1.000000 0.000000
7.000000 15.000000 7.000000 0.000000 -1.000000 0.000000
-7.000000 15.000000 7.000000 0.000000 -1.000000 0.000000
-7.000000 -1.000000 0.000000 1.000000 0.000000 0.000000
-7.000000 6.000000 0.000000 1.000000 0.000000 0.000000
-7.000000 6.000000 7.000000 1.000000 0.000000 0.000000
-7.000000 -1.000000 0.000000 1.000000 0.000000 0.000000
-7.000000 6.000000 7.000000 1.000000 0.000000 0.000000
-7.000000 -1.000000 7.000000 1.000000 0.000000 0.000000
-7.000000 6.000000 0.000000 1.000000 0.000000 0.000000
-7.000000 8.000000 0.000000 1.000000 0.000000 0.000000
-7.000000 8.000000 3.200000 1.000000 0.000000 0.000000
-7.000000 6.000000 0.000000 1.000000 0.000000 0.000000
-7.000000 8.000000 3.200000 1.000000 0.000000 0.000000
-7.000000 6.000000 3.200000 1.000000 0.000000 0.000000
-7.000000 6.000000 5.000000 1.000000 0.000000 0.000000
-7.000000 8.000000 5.000000 1.000000 0.000000 0.000000
-7.000000 8.000000 7.000000 1.000000 0.000000 0.000000
-7.000000 6.000000 5.000000 1.000000 0.000000 0.000000
-7.000000 8.000000 7.000000 1.000000 0.000000 0.000000
-7.000000 6.000000 7.000000 1.000000 0.000000 0.000000
-7.000000 8.000000 0.000000 1.000000 0.000000 0.000000
-7.000000 15.000000 0.000000 1.000000 0.000000 0.000000
-7.000000 15.000000 7.000000 1.000000 0.000000 0.000000
-7.000000 8.000000 0.000000 1.000000 0.000000 0.000000
-7.000000 15.000000 7.000000 1.000000 0.000000 0.000000
-7.000000 8.000000 7.000000 1.000000 0.000000 0.000000
3 0 1 2
3 3 4 5
3 6 7 8
3 9 10 11
3 12 13 14
3 15 16 17
3 18 19 20
3 21 22 23
3 24 25 26
3 27 28 29
3 30 31 32
3 33 34 35
3 36 37 38
3 39 40 41
3 42 43 44
3 45 46 47
