ply
format ascii 1.0
element vertex 256
property float x
property float y
property float z
property float nx
property float ny
property float nz
property float s
property float t
element face 256
property list uchar int vertex_indices
end_header
0.06000000 0.00000000 0.00000000 0 0 1 0.95000000 0.50000000
0.00750000 0.00000000 0.00000000 0 0 1 0.55625000 0.50000000
0.05992773 0.00294406 0.00000000 0 0 1 0.94945796 0.52208045
0.00749097 0.00036801 0.00000000 0 0 1 0.55618224 0.50276006
0.05971108 0.00588103 0.00000000 0 0 1 0.94783313 0.54410771
0.00746389 0.00073513 0.00000000 0 0 1 0.55597914 0.50551346
0.05935059 0.00880383 0.00000000 0 0 1 0.94512943 0.56602871
0.00741882 0.00110048 0.00000000 0 0 1 0.55564118 0.50825359
0.05884712 0.01170542 0.00000000 0 0 1 0.94135338 0.58779064
0.00735589 0.00146318 0.00000000 0 0 1 0.55516917 0.51097383
0.05820188 0.01457881 0.00000000 0 0 1 0.93651406 0.60934108
0.00727523 0.00182235 0.00000000 0 0 1 0.55456426 0.51366764
0.05741642 0.01741708 0.00000000 0 0 1 0.93062315 0.63062810
0.00717705 0.00217714 0.00000000 0 0 1 0.55382789 0.51632851
0.05649264 0.02021339 0.00000000 0 0 1 0.92369483 0.65160043
0.00706158 0.00252667 0.00000000 0 0 1 0.55296185 0.51895005
0.05543277 0.02296101 0.00000000 0 0 1 0.91574579 0.67220754
0.00692910 0.00287013 0.00000000 0 0 1 0.55196822 0.52152594
0.05423936 0.02565331 0.00000000 0 0 1 0.90679518 0.69239979
0.00677992 0.00320666 0.00000000 0 0 1 0.55084940 0.52404997
0.05291528 0.02828380 0.00000000 0 0 1 0.89686457 0.71212853
0.00661441 0.00353548 0.00000000 0 0 1 0.54960807 0.52651607
0.05146372 0.03084616 0.00000000 0 0 1 0.88597787 0.73134623
0.00643296 0.00385577 0.00000000 0 0 1 0.54824723 0.52891828
0.04988818 0.03333421 0.00000000 0 0 1 0.87416133 0.75000660
0.00623602 0.00416678 0.00000000 0 0 1 0.54677017 0.53125083
0.04819245 0.03574196 0.00000000 0 0 1 0.86144339 0.76806469
0.00602406 0.00446774 0.00000000 0 0 1 0.54518042 0.53350809
0.04638063 0.03806360 0.00000000 0 0 1 0.84785470 0.78547698
0.00579758 0.00475795 0.00000000 0 0 1 0.54348184 0.53568462
0.04445707 0.04029354 0.00000000 0 0 1 0.83342801 0.80220153
0.00555713 0.00503669 0.00000000 0 0 1 0.54167850 0.53777519
0.04242641 0.04242641 0.00000000 0 0 1 0.81819805 0.81819805
0.00530330 0.00530330 0.00000000 0 0 1 0.53977476 0.53977476
0.04029354 0.04445707 0.00000000 0 0 1 0.80220153 0.83342801
0.00503669 0.00555713 0.00000000 0 0 1 0.53777519 0.54167850
0.03806360 0.04638063 0.00000000 0 0 1 0.78547698 0.84785470
0.00475795 0.00579758 0.00000000 0 0 1 0.53568462 0.54348184
0.03574196 0.04819245 0.00000000 0 0 1 0.76806469 0.86144339
0.00446774 0.00602406 0.00000000 0 0 1 0.53350809 0.54518042
0.03333421 0.04988818 0.00000000 0 0 1 0.75000660 0.87416133
0.00416678 0.00623602 0.00000000 0 0 1 0.53125083 0.54677017
0.03084616 0.05146372 0.00000000 0 0 1 0.73134623 0.88597787
0.00385577 0.00643296 0.00000000 0 0 1 0.52891828 0.54824723
0.02828380 0.05291528 0.00000000 0 0 1 0.71212853 0.89686457
0.00353548 0.00661441 0.00000000 0 0 1 0.52651607 0.54960807
0.02565331 0.05423936 0.00000000 0 0 1 0.69239979 0.90679518
0.00320666 0.00677992 0.00000000 0 0 1 0.52404997 0.55084940
0.02296101 0.05543277 0.00000000 0 0 1 0.67220754 0.91574579
0.00287013 0.00692910 0.00000000 0 0 1 0.52152594 0.55196822
0.02021339 0.05649264 0.00000000 0 0 1 0.65160043 0.92369483
0.00252667 0.00706158 0.00000000 0 0 1 0.51895005 0.55296185
0.01741708 0.05741642 0.00000000 0 0 1 0.63062810 0.93062315
0.00217714 0.00717705 0.00000000 0 0 1 0.51632851 0.55382789
0.01457881 0.05820188 0.00000000 0 0 1 0.60934108 0.93651406
0.00182235 0.00727523 0.00000000 0 0 1 0.51366764 0.55456426
0.01170542 0.05884712 0.00000000 0 0 1 0.58779064 0.94135338
0.00146318 0.00735589 0.00000000 0 0 1 0.51097383 0.55516917
0.00880383 0.05935059 0.00000000 0 0 1 0.56602871 0.94512943
0.00110048 0.00741882 0.00000000 0 0 1 0.50825359 0.55564118
0.00588103 0.05971108 0.00000000 0 0 1 0.54410771 0.94783313
0.00073513 0.00746389 0.00000000 0 0 1 0.50551346 0.55597914
0.00294406 0.05992773 0.00000000 0 0 1 0.52208045 0.94945796
0.00036801 0.00749097 0.00000000 0 0 1 0.50276006 0.55618224
0.00000000 0.06000000 0.00000000 0 0 1 0.50000000 0.95000000
0.00000000 0.00750000 0.00000000 0 0 1 0.50000000 0.55625000
-0.00294406 0.05992773 0.00000000 0 0 1 0.47791955 0.94945796
-0.00036801 0.00749097 0.00000000 0 0 1 0.49723994 0.55618224
-0.00588103 0.05971108 0.00000000 0 0 1 0.45589229 0.94783313
-0.00073513 0.00746389 0.00000000 0 0 1 0.49448654 0.55597914
-0.00880383 0.05935059 0.00000000 0 0 1 0.43397129 0.94512943
-0.00110048 0.00741882 0.00000000 0 0 1 0.49174641 0.55564118
-0.01170542 0.05884712 0.00000000 0 0 1 0.41220936 0.94135338
-0.00146318 0.00735589 0.00000000 0 0 1 0.48902617 0.55516917
-0.01457881 0.05820188 0.00000000 0 0 1 0.39065892 0.93651406
-0.00182235 0.00727523 0.00000000 0 0 1 0.48633236 0.55456426
-0.01741708 0.05741642 0.00000000 0 0 1 0.36937190 0.93062315
-0.00217714 0.00717705 0.00000000 0 0 1 0.48367149 0.55382789
-0.02021339 0.05649264 0.00000000 0 0 1 0.34839957 0.92369483
-0.00252667 0.00706158 0.00000000 0 0 1 0.48104995 0.55296185
-0.02296101 0.05543277 0.00000000 0 0 1 0.32779246 0.91574579
-0.00287013 0.00692910 0.00000000 0 0 1 0.47847406 0.55196822
-0.02565331 0.05423936 0.00000000 0 0 1 0.30760021 0.90679518
-0.00320666 0.00677992 0.00000000 0 0 1 0.47595003 0.55084940
-0.02828380 0.05291528 0.00000000 0 0 1 0.28787147 0.89686457
-0.00353548 0.00661441 0.00000000 0 0 1 0.47348393 0.54960807
-0.03084616 0.05146372 0.00000000 0 0 1 0.26865377 0.88597787
-0.00385577 0.00643296 0.00000000 0 0 1 0.47108172 0.54824723
-0.03333421 0.04988818 0.00000000 0 0 1 0.24999340 0.87416133
-0.00416678 0.00623602 0.00000000 0 0 1 0.46874917 0.54677017
-0.03574196 0.04819245 0.00000000 0 0 1 0.23193531 0.86144339
-0.00446774 0.00602406 0.00000000 0 0 1 0.46649191 0.54518042
-0.03806360 0.04638063 0.00000000 0 0 1 0.21452302 0.84785470
-0.00475795 0.00579758 0.00000000 0 0 1 0.46431538 0.54348184
-0.04029354 0.04445707 0.00000000 0 0 1 0.19779847 0.83342801
-0.00503669 0.00555713 0.00000000 0 0 1 0.46222481 0.54167850
-0.04242641 0.04242641 0.00000000 0 0 1 0.18180195 0.81819805
-0.00530330 0.00530330 0.00000000 0 0 1 0.46022524 0.53977476
-0.04445707 0.04029354 0.00000000 0 0 1 0.16657199 0.80220153
-0.00555713 0.00503669 0.00000000 0 0 1 0.45832150 0.53777519
-0.04638063 0.03806360 0.00000000 0 0 1 0.15214530 0.78547698
-0.00579758 0.00475795 0.00000000 0 0 1 0.45651816 0.53568462
-0.04819245 0.03574196 0.00000000 0 0 1 0.13855661 0.76806469
-0.00602406 0.00446774 0.00000000 0 0 1 0.45481958 0.53350809
-0.04988818 0.03333421 0.00000000 0 0 1 0.12583867 0.75000660
-0.00623602 0.00416678 0.00000000 0 0 1 0.45322983 0.53125083
-0.05146372 0.03084616 0.00000000 0 0 1 0.11402213 0.73134623
-0.00643296 0.00385577 0.00000000 0 0 1 0.45175277 0.52891828
-0.05291528 0.02828380 0.00000000 0 0 1 0.10313543 0.71212853
-0.00661441 0.00353548 0.00000000 0 0 1 0.45039193 0.52651607
-0.05423936 0.02565331 0.00000000 0 0 1 0.09320482 0.69239979
-0.00677992 0.00320666 0.00000000 0 0 1 0.44915060 0.52404997
-0.05543277 0.02296101 0.00000000 0 0 1 0.08425421 0.67220754
-0.00692910 0.00287013 0.00000000 0 0 1 0.44803178 0.52152594
-0.05649264 0.02021339 0.00000000 0 0 1 0.07630517 0.65160043
-0.00706158 0.00252667 0.00000000 0 0 1 0.44703815 0.51895005
-0.05741642 0.01741708 0.00000000 0 0 1 0.06937685 0.63062810
-0.00717705 0.00217714 0.00000000 0 0 1 0.44617211 0.51632851
-0.05820188 0.01457881 0.00000000 0 0 1 0.06348594 0.60934108
-0.00727523 0.00182235 0.00000000 0 0 1 0.44543574 0.51366764
-0.05884712 0.01170542 0.00000000 0 0 1 0.05864662 0.58779064
-0.00735589 0.00146318 0.00000000 0 0 1 0.44483083 0.51097383
-0.05935059 0.00880383 0.00000000 0 0 1 0.05487057 0.56602871
-0.00741882 0.00110048 0.00000000 0 0 1 0.44435882 0.50825359
-0.05971108 0.00588103 0.00000000 0 0 1 0.05216687 0.54410771
-0.00746389 0.00073513 0.00000000 0 0 1 0.44402086 0.50551346
-0.05992773 0.00294406 0.00000000 0 0 1 0.05054204 0.52208045
-0.00749097 0.00036801 0.00000000 0 0 1 0.44381776 0.50276006
-0.06000000 0.00000000 0.00000000 0 0 1 0.05000000 0.50000000
-0.00750000 0.00000000 0.00000000 0 0 1 0.44375000 0.50000000
-0.05992773 -0.00294406 0.00000000 0 0 1 0.05054204 0.47791955
-0.00749097 -0.00036801 0.00000000 0 0 1 0.44381776 0.49723994
-0.05971108 -0.00588103 0.00000000 0 0 1 0.05216687 0.45589229
-0.00746389 -0.00073513 0.00000000 0 0 1 0.44402086 0.49448654
-0.05935059 -0.00880383 0.00000000 0 0 1 0.05487057 0.43397129
-0.00741882 -0.00110048 0.00000000 0 0 1 0.44435882 0.49174641
-0.05884712 -0.01170542 0.00000000 0 0 1 0.05864662 0.41220936
-0.00735589 -0.00146318 0.00000000 0 0 1 0.44483083 0.48902617
-0.05820188 -0.01457881 0.00000000 0 0 1 0.06348594 0.39065892
-0.00727523 -0.00182235 0.00000000 0 0 1 0.44543574 0.48633236
-0.05741642 -0.01741708 0.00000000 0 0 1 0.06937685 0.36937190
-0.00717705 -0.00217714 0.00000000 0 0 1 0.44617211 0.48367149
-0.05649264 -0.02021339 0.00000000 0 0 1 0.07630517 0.34839957
-0.00706158 -0.00252667 0.00000000 0 0 1 0.44703815 0.48104995
-0.05543277 -0.02296101 0.00000000 0 0 1 0.08425421 0.32779246
-0.00692910 -0.00287013 0.00000000 0 0 1 0.44803178 0.47847406
-0.05423936 -0.02565331 0.00000000 0 0 1 0.09320482 0.30760021
-0.00677992 -0.00320666 0.00000000 0 0 1 0.44915060 0.47595003
-0.05291528 -0.02828380 0.00000000 0 0 1 0.10313543 0.28787147
-0.00661441 -0.00353548 0.00000000 0 0 1 0.45039193 0.47348393
-0.05146372 -0.03084616 0.00000000 0 0 1 0.11402213 0.26865377
-0.00643296 -0.00385577 0.00000000 0 0 1 0.45175277 0.47108172
-0.04988818 -0.03333421 0.00000000 0 0 1 0.12583867 0.24999340
-0.00623602 -0.00416678 0.00000000 0 0 1 0.45322983 0.46874917
-0.04819245 -0.03574196 0.00000000 0 0 1 0.13855661 0.23193531
-0.00602406 -0.00446774 0.00000000 0 0 1 0.45481958 0.46649191
-0.04638063 -0.03806360 0.00000000 0 0 1 0.15214530 0.21452302
-0.00579758 -0.00475795 0.00000000 0 0 1 0.45651816 0.46431538
-0.04445707 -0.04029354 0.00000000 0 0 1 0.16657199 0.19779847
-0.00555713 -0.00503669 0.00000000 0 0 1 0.45832150 0.46222481
-0.04242641 -0.04242641 0.00000000 0 0 1 0.18180195 0.18180195
-0.00530330 -0.00530330 0.00000000 0 0 1 0.46022524 0.46022524
-0.04029354 -0.04445707 0.00000000 0 0 1 0.19779847 0.16657199
-0.00503669 -0.00555713 0.00000000 0 0 1 0.46222481 0.45832150
-0.03806360 -0.04638063 0.00000000 0 0 1 0.21452302 0.15214530
-0.00475795 -0.00579758 0.00000000 0 0 1 0.46431538 0.45651816
-0.03574196 -0.04819245 0.00000000 0 0 1 0.23193531 0.13855661
-0.00446774 -0.00602406 0.00000000 0 0 1 0.46649191 0.45481958
-0.03333421 -0.04988818 0.00000000 0 0 1 0.24999340 0.12583867
-0.00416678 -0.00623602 0.00000000 0 0 1 0.46874917 0.45322983
-0.03084616 -0.05146372 0.00000000 0 0 1 0.26865377 0.11402213
-0.00385577 -0.00643296 0.00000000 0 0 1 0.47108172 0.45175277
-0.02828380 -0.05291528 0.00000000 0 0 1 0.28787147 0.10313543
-0.00353548 -0.00661441 0.00000000 0 0 1 0.47348393 0.45039193
-0.02565331 -0.05423936 0.00000000 0 0 1 0.30760021 0.09320482
-0.00320666 -0.00677992 0.00000000 0 0 1 0.47595003 0.44915060
-0.02296101 -0.05543277 0.00000000 0 0 1 0.32779246 0.08425421
-0.00287013 -0.00692910 0.00000000 0 0 1 0.47847406 0.44803178
-0.02021339 -0.05649264 0.00000000 0 0 1 0.34839957 0.07630517
-0.00252667 -0.00706158 0.00000000 0 0 1 0.48104995 0.44703815
-0.01741708 -0.05741642 0.00000000 0 0 1 0.36937190 0.06937685
-0.00217714 -0.00717705 0.00000000 0 0 1 0.48367149 0.44617211
-0.01457881 -0.05820188 0.00000000 0 0 1 0.39065892 0.06348594
-0.00182235 -0.00727523 0.00000000 0 0 1 0.48633236 0.44543574
-0.01170542 -0.05884712 0.00000000 0 0 1 0.41220936 0.05864662
-0.00146318 -0.00735589 0.00000000 0 0 1 0.48902617 0.44483083
-0.00880383 -0.05935059 0.00000000 0 0 1 0.43397129 0.05487057
-0.00110048 -0.00741882 0.00000000 0 0 1 0.49174641 0.44435882
-0.00588103 -0.05971108 0.00000000 0 0 1 0.45589229 0.05216687
-0.00073513 -0.00746389 0.00000000 0 0 1 0.49448654 0.44402086
-0.00294406 -0.05992773 0.00000000 0 0 1 0.47791955 0.05054204
-0.00036801 -0.00749097 0.00000000 0 0 1 0.49723994 0.44381776
-0.00000000 -0.06000000 0.00000000 0 0 1 0.50000000 0.05000000
-0.00000000 -0.00750000 0.00000000 0 0 1 0.50000000 0.44375000
0.00294406 -0.05992773 0.00000000 0 0 1 0.52208045 0.05054204
0.00036801 -0.00749097 0.00000000 0 0 1 0.50276006 0.44381776
0.00588103 -0.05971108 0.00000000 0 0 1 0.54410771 0.05216687
0.00073513 -0.00746389 0.00000000 0 0 1 0.50551346 0.44402086
0.00880383 -0.05935059 0.00000000 0 0 1 0.56602871 0.05487057
0.00110048 -0.00741882 0.00000000 0 0 1 0.50825359 0.44435882
0.01170542 -0.05884712 0.00000000 0 0 1 0.58779064 0.05864662
0.00146318 -0.00735589 0.00000000 0 0 1 0.51097383 0.44483083
0.01457881 -0.05820188 0.00000000 0 0 1 0.60934108 0.06348594
0.00182235 -0.00727523 0.00000000 0 0 1 0.51366764 0.44543574
0.01741708 -0.05741642 0.00000000 0 0 1 0.63062810 0.06937685
0.00217714 -0.00717705 0.00000000 0 0 1 0.51632851 0.44617211
0.02021339 -0.05649264 0.00000000 0 0 1 0.65160043 0.07630517
0.00252667 -0.00706158 0.00000000 0 0 1 0.51895005 0.44703815
0.02296101 -0.05543277 0.00000000 0 0 1 0.67220754 0.08425421
0.00287013 -0.00692910 0.00000000 0 0 1 0.52152594 0.44803178
0.02565331 -0.05423936 0.00000000 0 0 1 0.69239979 0.09320482
0.00320666 -0.00677992 0.00000000 0 0 1 0.52404997 0.44915060
0.02828380 -0.05291528 0.00000000 0 0 1 0.71212853 0.10313543
0.00353548 -0.00661441 0.00000000 0 0 1 0.52651607 0.45039193
0.03084616 -0.05146372 0.00000000 0 0 1 0.73134623 0.11402213
0.00385577 -0.00643296 0.00000000 0 0 1 0.52891828 0.45175277
0.03333421 -0.04988818 0.00000000 0 0 1 0.75000660 0.12583867
0.00416678 -0.00623602 0.00000000 0 0 1 0.53125083 0.45322983
0.03574196 -0.04819245 0.00000000 0 0 1 0.76806469 0.13855661
0.00446774 -0.00602406 0.00000000 0 0 1 0.53350809 0.45481958
0.03806360 -0.04638063 0.00000000 0 0 1 0.78547698 0.15214530
0.00475795 -0.00579758 0.00000000 0 0 1 0.53568462 0.45651816
0.04029354 -0.04445707 0.00000000 0 0 1 0.80220153 0.16657199
0.00503669 -0.00555713 0.00000000 0 0 1 0.53777519 0.45832150
0.04242641 -0.04242641 0.00000000 0 0 1 0.81819805 0.18180195
0.00530330 -0.00530330 0.00000000 0 0 1 0.53977476 0.46022524
0.04445707 -0.04029354 0.00000000 0 0 1 0.83342801 0.19779847
0.00555713 -0.00503669 0.00000000 0 0 1 0.54167850 0.46222481
0.04638063 -0.03806360 0.00000000 0 0 1 0.84785470 0.21452302
0.00579758 -0.00475795 0.00000000 0 0 1 0.54348184 0.46431538
0.04819245 -0.03574196 0.00000000 0 0 1 0.86144339 0.23193531
0.00602406 -0.00446774 0.00000000 0 0 1 0.54518042 0.46649191
0.04988818 -0.03333421 0.00000000 0 0 1 0.87416133 0.24999340
0.00623602 -0.00416678 0.00000000 0 0 1 0.54677017 0.46874917
0.05146372 -0.03084616 0.00000000 0 0 1 0.88597787 0.26865377
0.00643296 -0.00385577 0.00000000 0 0 1 0.54824723 0.47108172
0.05291528 -0.02828380 0.00000000 0 0 1 0.89686457 0.28787147
0.00661441 -0.00353548 0.00000000 0 0 1 0.54960807 0.47348393
0.05423936 -0.02565331 0.00000000 0 0 1 0.90679518 0.30760021
0.00677992 -0.00320666 0.00000000 0 0 1 0.55084940 0.47595003
0.05543277 -0.02296101 0.00000000 0 0 1 0.91574579 0.32779246
0.00692910 -0.00287013 0.00000000 0 0 1 0.55196822 0.47847406
0.05649264 -0.02021339 0.00000000 0 0 1 0.92369483 0.34839957
0.00706158 -0.00252667 0.00000000 0 0 1 0.55296185 0.48104995
0.05741642 -0.01741708 0.00000000 0 0 1 0.93062315 0.36937190
0.00717705 -0.00217714 0.00000000 0 0 1 0.55382789 0.48367149
0.05820188 -0.01457881 0.00000000 0 0 1 0.93651406 0.39065892
0.00727523 -0.00182235 0.00000000 0 0 1 0.55456426 0.48633236
0.05884712 -0.01170542 0.00000000 0 0 1 0.94135338 0.41220936
0.00735589 -0.00146318 0.00000000 0 0 1 0.55516917 0.48902617
0.05935059 -0.00880383 0.00000000 0 0 1 0.94512943 0.43397129
0.00741882 -0.00110048 0.00000000 0 0 1 0.55564118 0.49174641
0.05971108 -0.00588103 0.00000000 0 0 1 0.94783313 0.45589229
0.00746389 -0.00073513 0.00000000 0 0 1 0.55597914 0.49448654
0.05992773 -0.00294406 0.00000000 0 0 1 0.94945796 0.47791955
0.00749097 -0.00036801 0.00000000 0 0 1 0.55618224 0.49723994
3 0 2 3
3 0 3 1
3 2 4 5
3 2 5 3
3 4 6 7
3 4 7 5
3 6 8 9
3 6 9 7
3 8 10 11
3 8 11 9
3 10 12 13
3 10 13 11
3 12 14 15
3 12 15 13
3 14 16 17
3 14 17 15
3 16 18 19
3 16 19 17
3 18 20 21
3 18 21 19
3 20 22 23
3 20 23 21
3 22 24 25
3 22 25 23
3 24 26 27
3 24 27 25
3 26 28 29
3 26 29 27
3 28 30 31
3 28 31 29
3 30 32 33
3 30 33 31
3 32 34 35
3 32 35 33
3 34 36 37
3 34 37 35
3 36 38 39
3 36 39 37
3 38 40 41
3 38 41 39
3 40 42 43
3 40 43 41
3 42 44 45
3 42 45 43
3 44 46 47
3 44 47 45
3 46 48 49
3 46 49 47
3 48 50 51
3 48 51 49
3 50 52 53
3 50 53 51
3 52 54 55
3 52 55 53
3 54 56 57
3 54 57 55
3 56 58 59
3 56 59 57
3 58 60 61
3 58 61 59
3 60 62 63
3 60 63 61
3 62 64 65
3 62 65 63
3 64 66 67
3 64 67 65
3 66 68 69
3 66 69 67
3 68 70 71
3 68 71 69
3 70 72 73
3 70 73 71
3 72 74 75
3 72 75 73
3 74 76 77
3 74 77 75
3 76 78 79
3 76 79 77
3 78 80 81
3 78 81 79
3 80 82 83
3 80 83 81
3 82 84 85
3 82 85 83
3 84 86 87
3 84 87 85
3 86 88 89
3 86 89 87
3 88 90 91
3 88 91 89
3 90 92 93
3 90 93 91
3 92 94 95
3 92 95 93
3 94 96 97
3 94 97 95
3 96 98 99
3 96 99 97
3 98 100 101
3 98 101 99
3 100 102 103
3 100 103 101
3 102 104 105
3 102 105 103
3 104 106 107
3 104 107 105
3 106 108 109
3 106 109 107
3 108 110 111
3 108 111 109
3 110 112 113
3 110 113 111
3 112 114 115
3 112 115 113
3 114 116 117
3 114 117 115
3 116 118 119
3 116 119 117
3 118 120 121
3 118 121 119
3 120 122 123
3 120 123 121
3 122 124 125
3 122 125 123
3 124 126 127
3 124 127 125
3 126 128 129
3 126 129 127
3 128 130 131
3 128 131 129
3 130 132 133
3 130 133 131
3 132 134 135
3 132 135 133
3 134 136 137
3 134 137 135
3 136 138 139
3 136 139 137
3 138 140 141
3 138 141 139
3 140 142 143
3 140 143 141
3 142 144 145
3 142 145 143
3 144 146 147
3 144 147 145
3 146 148 149
3 146 149 147
3 148 150 151
3 148 151 149
3 150 152 153
3 150 153 151
3 152 154 155
3 152 155 153
3 154 156 157
3 154 157 155
3 156 158 159
3 156 159 157
3 158 160 161
3 158 161 159
3 160 162 163
3 160 163 161
3 162 164 165
3 162 165 163
3 164 166 167
3 164 167 165
3 166 168 169
3 166 169 167
3 168 170 171
3 168 171 169
3 170 172 173
3 170 173 171
3 172 174 175
3 172 175 173
3 174 176 177
3 174 177 175
3 176 178 179
3 176 179 177
3 178 180 181
3 178 181 179
3 180 182 183
3 180 183 181
3 182 184 185
3 182 185 183
3 184 186 187
3 184 187 185
3 186 188 189
3 186 189 187
3 188 190 191
3 188 191 189
3 190 192 193
3 190 193 191
3 192 194 195
3 192 195 193
3 194 196 197
3 194 197 195
3 196 198 199
3 196 199 197
3 198 200 201
3 198 201 199
3 200 202 203
3 200 203 201
3 202 204 205
3 202 205 203
3 204 206 207
3 204 207 205
3 206 208 209
3 206 209 207
3 208 210 211
3 208 211 209
3 210 212 213
3 210 213 211
3 212 214 215
3 212 215 213
3 214 216 217
3 214 217 215
3 216 218 219
3 216 219 217
3 218 220 221
3 218 221 219
3 220 222 223
3 220 223 221
3 222 224 225
3 222 225 223
3 224 226 227
3 224 227 225
3 226 228 229
3 226 229 227
3 228 230 231
3 228 231 229
3 230 232 233
3 230 233 231
3 232 234 235
3 232 235 233
3 234 236 237
3 234 237 235
3 236 238 239
3 236 239 237
3 238 240 241
3 238 241 239
3 240 242 243
3 240 243 241
3 242 244 245
3 242 245 243
3 244 246 247
3 244 247 245
3 246 248 249
3 246 249 247
3 248 250 251
3 248 251 249
3 250 252 253
3 250 253 251
3 252 254 255
3 252 255 253
3 254 0 1
3 254 1 255
